<?xml version="1.0" encoding="utf-8"?>
<!-- Generator: Adobe Illustrator 26.3.1, SVG Export Plug-In . SVG Version: 6.00 Build 0)  -->
<svg version="1.1" id="Слой_1" xmlns="http://www.w3.org/2000/svg" xmlns:xlink="http://www.w3.org/1999/xlink" x="0px" y="0px"
	 viewBox="0 0 256 256" style="enable-background:new 0 0 256 256;" xml:space="preserve">
<style type="text/css">
	.st0{fill:#4B00A8;}
	.st1{fill:none;stroke:#FFFFFF;stroke-width:10;stroke-linecap:round;stroke-miterlimit:10;}
	.st2{fill:#FFFFFF;}
	.st3{fill:none;stroke:#FFFFFF;stroke-width:10;stroke-miterlimit:10;}
	.st4{fill:none;stroke:#FFFFFF;stroke-width:10;stroke-linecap:round;stroke-linejoin:round;stroke-miterlimit:10;}
</style>
<rect class="st0" width="256" height="256"/>
<path class="st1" d="M113.3,75.7c-9.7,0-19.6,0-29.3,0c-8.3,0-16.6,0.1-24.9,0.1c-1.2,0.2-4.8,1-7.7,4.1c-2.3,2.3-3.1,4.9-3.3,6.2
	c0,27.2,0,54.4,0.1,81.6c0.2,1.3,0.9,4.3,3.4,7c4,4.2,9.4,4.1,10.3,4.1c44.4-0.1,88.9-0.1,133.3-0.2c0.9,0,5.2,0,8.9-3.3
	c4.1-3.7,4.1-8.7,4.1-9.5c0.1-35.2-0.1-61.6,0-74.1c0-2.5,0.1-8.4-3.8-12.2c-4.1-4.1-10.7-3.8-13.7-3.6c-11.7,0.6-27.3,0.5-47.8,0"
	/>
<circle class="st2" cx="128" cy="75.7" r="3.3"/>
<g>
	<path class="st2" d="M189.8,94v66.2H66.2V94H189.8 M194.4,86.8H61.7c-1.5,0-2.8,1.2-2.8,2.8v75.3c0,1.5,1.2,2.8,2.8,2.8h132.6
		c1.5,0,2.8-1.2,2.8-2.8V89.5C197.1,88,195.9,86.8,194.4,86.8L194.4,86.8z"/>
</g>
<g>
	<line class="st3" x1="106.1" y1="167.6" x2="106.1" y2="86.8"/>
</g>
<g>
	<line class="st3" x1="150" y1="167.6" x2="150" y2="86.8"/>
</g>
<g>
	<path class="st2" d="M85.3,116.1c2,0,3.7,1.7,3.7,3.7v14.8c0,2-1.7,3.7-3.7,3.7h-2.2c-2,0-3.7-1.7-3.7-3.7v-14.8
		c0-2,1.7-3.7,3.7-3.7H85.3 M85.3,108.8h-2.2c-6,0-11,4.9-11,11v14.8c0,6,4.9,11,11,11h2.2c6,0,11-4.9,11-11v-14.8
		C96.3,113.7,91.3,108.8,85.3,108.8L85.3,108.8z"/>
</g>
<g>
	<path class="st2" d="M129.1,116.3c2,0,3.7,1.7,3.7,3.7v14.8c0,2-1.7,3.7-3.7,3.7h-2.2c-2,0-3.7-1.7-3.7-3.7V120
		c0-2,1.7-3.7,3.7-3.7H129.1 M129.1,109h-2.2c-6,0-11,4.9-11,11v14.8c0,6,4.9,11,11,11h2.2c6,0,11-4.9,11-11V120
		C140.1,114,135.2,109,129.1,109L129.1,109z"/>
</g>
<path class="st4" d="M177.3,91.1c-4.3,5.9-8.6,11.7-12.8,17.6c5.3,0,10.6-0.1,15.9-0.1"/>
<path class="st4" d="M163.7,143.3c0.8-4.5,5.1-7.6,9.5-7c4.3,0.6,7.3,4.6,7.1,8.9c-0.2,4.3-3.8,7.9-8.1,8.1c0.7,0.1,4.1,0.4,6.6,3.4
	c2.3,2.8,2.3,5.9,2.2,6.6"/>
</svg>
