<?xml version="1.0" encoding="utf-8"?>
<!-- Generator: Adobe Illustrator 26.3.1, SVG Export Plug-In . SVG Version: 6.00 Build 0)  -->
<svg version="1.1" id="Слой_1" xmlns="http://www.w3.org/2000/svg" xmlns:xlink="http://www.w3.org/1999/xlink" x="0px" y="0px"
	 viewBox="0 0 256 256" style="enable-background:new 0 0 256 256;" xml:space="preserve">
<style type="text/css">
	.st0{fill:#4B00A8;}
	.st1{fill:none;stroke:#000000;stroke-width:10;stroke-linecap:round;stroke-miterlimit:10;}
	.st2{fill:none;stroke:#000000;stroke-width:10;stroke-miterlimit:10;}
	.st3{fill:none;stroke:#000000;stroke-width:10;stroke-linecap:round;stroke-linejoin:round;stroke-miterlimit:10;}
</style>
<rect class="st0" width="256" height="256"/>
<image style="display:none;overflow:visible;" width="512" height="512" xlink:href="C:\Users\Bishkek\Downloads\countdown.png"  transform="matrix(0.5 0 0 0.5 0 0)">
</image>
<path class="st1" d="M107.8,57c-13.4,0-26.9,0-40.3,0c-11.4,0-22.8,0.1-34.2,0.1c-1.7,0.3-6.6,1.4-10.6,5.7
	c-3.1,3.2-4.2,6.8-4.6,8.5c0,37.4,0,74.8,0.1,112.2c0.3,1.8,1.2,5.9,4.7,9.6c5.5,5.8,12.9,5.6,14.1,5.6
	c61.1-0.1,122.2-0.2,183.3-0.3c1.2,0,7.2,0,12.2-4.6c5.6-5.1,5.6-12,5.6-13c0.1-48.4-0.2-84.7,0-101.9c0-3.4,0.1-11.5-5.2-16.8
	c-5.7-5.7-14.7-5.2-18.9-5c-16.1,0.8-37.5,0.7-65.7,0"/>
<circle cx="128" cy="57" r="4.5"/>
<g>
	<path d="M213,82.2v91.1H43V82.2H213 M219.2,72.2H36.8c-2.1,0-3.8,1.7-3.8,3.8v103.6c0,2.1,1.7,3.8,3.8,3.8h182.4
		c2.1,0,3.8-1.7,3.8-3.8V76C223,73.9,221.3,72.2,219.2,72.2L219.2,72.2z"/>
</g>
<g>
	<line class="st2" x1="97.8" y1="183.3" x2="97.8" y2="72.2"/>
</g>
<g>
	<line class="st2" x1="158.2" y1="183.3" x2="158.2" y2="72.2"/>
</g>
<g>
	<path d="M69.2,112.5c2.8,0,5.1,2.3,5.1,5.1V138c0,2.8-2.3,5.1-5.1,5.1h-3c-2.8,0-5.1-2.3-5.1-5.1v-20.4c0-2.8,2.3-5.1,5.1-5.1H69.2
		 M69.2,102.5h-3c-8.3,0-15.1,6.8-15.1,15.1V138c0,8.3,6.8,15.1,15.1,15.1h3c8.3,0,15.1-6.8,15.1-15.1v-20.4
		C84.3,109.2,77.5,102.5,69.2,102.5L69.2,102.5z"/>
</g>
<g>
	<path d="M129.5,112.8c2.8,0,5.1,2.3,5.1,5.1v20.4c0,2.8-2.3,5.1-5.1,5.1h-3c-2.8,0-5.1-2.3-5.1-5.1v-20.4c0-2.8,2.3-5.1,5.1-5.1
		H129.5 M129.5,102.8h-3c-8.3,0-15.1,6.8-15.1,15.1v20.4c0,8.3,6.8,15.1,15.1,15.1h3c8.3,0,15.1-6.8,15.1-15.1v-20.4
		C144.6,109.6,137.9,102.8,129.5,102.8L129.5,102.8z"/>
</g>
<path class="st3" d="M195.7,78.2c-5.9,8.1-11.8,16.1-17.6,24.2c7.3,0,14.6-0.1,21.9-0.1"/>
<path class="st3" d="M177,150c1.1-6.2,7-10.4,13-9.6c5.9,0.8,10.1,6.3,9.8,12.2c-0.3,5.9-5.2,10.8-11.2,11.2
	c0.9,0.1,5.7,0.6,9.1,4.7c3.2,3.8,3.1,8.1,3,9.1"/>
</svg>
